<?xml version="1.0" standalone="no"?><!-- Generator: Gravit.io --><svg xmlns="http://www.w3.org/2000/svg" xmlns:xlink="http://www.w3.org/1999/xlink" style="isolation:isolate" viewBox="0 0 1125 1822" width="1125" height="1822"><defs><clipPath id="_clipPath_RtSaNZHHR8lD5JoBNzhAvkOJ9WT5mGqc"><rect x="0" y="0" width="1125" height="1822"/></clipPath></defs><g clip-path="url(#_clipPath_RtSaNZHHR8lD5JoBNzhAvkOJ9WT5mGqc)"><g><linearGradient id="_lgradient_0" x1="0.5" y1="0" x2="0.49999999999999983" y2="1" gradientTransform="matrix(1125,0,0,1822,0,0)" gradientUnits="userSpaceOnUse"><stop offset="0%" stop-opacity="0.8" style="stop-color:rgb(1,0,47)"/><stop offset="56.95652173913044%" stop-opacity="0.78" style="stop-color:rgb(0,0,2)"/><stop offset="100%" stop-opacity="0" style="stop-color:rgb(0,0,0)"/></linearGradient><rect x="0" y="0" width="1125" height="1822" transform="matrix(1,0,0,1,0,0)" fill="url(#_lgradient_0)"/><linearGradient id="_lgradient_1" x1="0.5" y1="0" x2="0.49999999999999983" y2="1" gradientTransform="matrix(1125,0,0,1822,0,0)" gradientUnits="userSpaceOnUse"><stop offset="0%" stop-opacity="1" style="stop-color:rgb(10,62,93)"/><stop offset="0.13892700329308452%" stop-opacity="0" style="stop-color:rgb(15,68,98)"/><stop offset="56.95652173913044%" stop-opacity="0.4" style="stop-color:rgb(204,103,81)"/><stop offset="80%" stop-opacity="0.8" style="stop-color:rgb(255,203,91)"/><stop offset="100%" stop-opacity="1" style="stop-color:rgb(255,208,0)"/></linearGradient><rect x="0" y="0" width="1125" height="1822" transform="matrix(1,0,0,1,0,0)" fill="url(#_lgradient_1)"/><linearGradient id="_lgradient_2" x1="0.6346666666666667" y1="0.18162618796198515" x2="1.008" y2="1.1636747624076025" gradientTransform="matrix(1125,0,0,947,0,875)" gradientUnits="userSpaceOnUse"><stop offset="0%" stop-opacity="0" style="stop-color:rgb(235,235,235)"/><stop offset="100%" stop-opacity="1" style="stop-color:rgb(255,114,98)"/></linearGradient><rect x="0" y="875" width="1125" height="947" transform="matrix(1,0,0,1,0,0)" fill="url(#_lgradient_2)"/><linearGradient id="_lgradient_3" x1="0.5946666666666667" y1="0.5121436114044351" x2="1.0071111111111108" y2="1.2724392819429782" gradientTransform="matrix(-1125,0,0,947,1125,875)" gradientUnits="userSpaceOnUse"><stop offset="0%" stop-opacity="0" style="stop-color:rgb(235,235,235)"/><stop offset="100%" stop-opacity="1" style="stop-color:rgb(255,97,80)"/></linearGradient><rect x="0" y="875" width="1125" height="947" transform="matrix(1,0,0,1,0,0)" fill="url(#_lgradient_3)"/></g><clipPath id="_clipPath_qAAoPVEoA9xJVCwzPX7gMDn0575ekjqd"><rect x="0" y="0" width="1125" height="1822" transform="matrix(1,0,0,1,0,0)" fill="rgb(255,255,255)"/></clipPath><g clip-path="url(#_clipPath_qAAoPVEoA9xJVCwzPX7gMDn0575ekjqd)"><g><path d=" M 760 391 L 610 417 L 760 417 L 924 391 L 760 391 Z " fill="rgb(255,255,255)" fill-opacity="0.2"/><path d=" M 677.086 475 L 545 497.895 L 677.086 497.895 L 821.5 475 L 677.086 475 Z " fill="rgb(255,255,255)" fill-opacity="0.2"/><path d=" M 825.516 437.006 L 708 457.376 L 825.516 457.376 L 954 437.006 L 825.516 437.006 Z " fill="rgb(255,255,255)" fill-opacity="0.2"/><path d=" M 1013.516 400 L 896 420.369 L 1013.516 420.369 L 1142 400 L 1013.516 400 Z " fill="rgb(255,255,255)" fill-opacity="0.2"/><path d=" M 1086.516 370.631 L 969 391 L 1086.516 391 L 1215 370.631 L 1086.516 370.631 Z " fill="rgb(255,255,255)" fill-opacity="0.2"/><path d=" M 638.933 424.752 L 562.5 438 L 638.933 438 L 722.5 424.752 L 638.933 424.752 Z " fill="rgb(255,255,255)" fill-opacity="0.2"/><path d=" M 1126.433 337 L 1050 350.248 L 1126.433 350.248 L 1210 337 L 1126.433 337 Z " fill="rgb(255,255,255)" fill-opacity="0.2"/><path d=" M 981.325 356 L 924 365.936 L 981.325 365.936 L 1044 356 L 981.325 356 Z " fill="rgb(255,255,255)" fill-opacity="0.2"/></g><g><path d=" M 1050 669 L 1193 642 L 1193 669 L 1050 669 Z " fill="rgb(255,255,255)" fill-opacity="0.2"/><path d=" M 760 697 L 1013.516 693 L 1206 720 L 1002 731 L 760 697 Z " fill="rgb(255,255,255)" fill-opacity="0.2"/><path d=" M 1039 691.821 L 1126.537 690.439 L 1193 699.762 L 1122.561 703.561 L 1039 691.821 Z " fill="rgb(255,255,255)" fill-opacity="0.2"/><path d=" M 1024.333 738.667 L 1094.333 753.667 L 1026 756.667 L 949.667 738 L 1024.333 738.667 Z " fill="rgb(255,255,255)" fill-opacity="0.2"/><path d=" M 1056.5 800 L 747 804 L 1054 844.5 L 1275.5 839 L 1056.5 800 Z " fill="rgb(255,255,255)" fill-opacity="0.2"/><path d=" M 920.667 859.333 L 1181.333 893.333 L 1181.333 854.667 L 920.667 859.333 Z " fill="rgb(255,255,255)" fill-opacity="0.2"/></g><g><path d=" M 477 549 L 596 577 L 477 571 L 352 544 L 477 549 Z " fill="rgb(255,255,255)" fill-opacity="0.25"/><path d=" M 129.434 581.057 L 226 603.779 L 129.434 598.91 L 28 577 L 129.434 581.057 Z " fill="rgb(255,255,255)" fill-opacity="0.25"/><path d=" M 374.5 708 L 494 731 L 376 733.5 L 246.5 706.5 L 374.5 708 Z " fill="rgb(255,255,255)" fill-opacity="0.2"/><path d=" M 249.5 730.5 L 375 754 L 252 754.5 L 121 728.5 L 249.5 730.5 Z " fill="rgb(255,255,255)" fill-opacity="0.2"/></g><g><path d=" M -25 829 L 163 862 L 800 849 L 1142 893 L 1142 999 L 954 1003 L 691 963 L 585 968 L 404 937 L 334 941 L -37 882 L -25 829 Z " fill="rgb(232,232,232)" fill-opacity="0.22"/><path d=" M -1 842 L 48 836 L 106 888 L 244 950 L 113 954 L 83 941 L 109 962 L 85 964 L 104 983 L 159 1005 L 354 1176 L 538 1296 L 679.545 1212.5 L 550 1192.045 L 719.318 1172.727 L 622.727 1157.955 L 786.364 1119.318 L 814.773 1081.818 L 940.909 997.727 L 1064.773 962.5 L 1102.273 886.364 L 1128.409 882.955 L 1458 2688 L -465 2559 L -1 842 Z " fill="rgb(66,66,66)" fill-opacity="0.1"/><path d=" M -33.75 1116 L 200.25 1244.25 L 330.75 1257.75 L 535.5 1341 L 695.25 1275.75 L 805.5 1192.5 L 918 1185.75 L 1077.75 1104.75 L 1102.5 1118.25 L 1158.75 1053 L 1370.25 2535.75 L -87.75 2531.25 L -33.75 1116 Z " fill="rgb(49,49,49)" fill-opacity="0.1"/><path d=" M 0 1253 L 173 1332 L 369 1456 L 517 1597 L 664 1568 L 749 1494 L 889 1476 L 983 1345 L 1093 1318 L 1172 1195 L 1249 1919 L -295 1919 L 0 1253 Z " fill="rgb(0,0,0)" fill-opacity="0.15"/></g><g><defs><filter id="1mo2zPTBJS8LgszC1oeEQ564xhmdN0jS" x="-200%" y="-200%" width="400%" height="400%" filterUnits="objectBoundingBox" color-interpolation-filters="sRGB"><feGaussianBlur xmlns="http://www.w3.org/2000/svg" stdDeviation="1.7174436251356113"/></filter></defs><g filter="url(#1mo2zPTBJS8LgszC1oeEQ564xhmdN0jS)"><circle vector-effect="non-scaling-stroke" cx="1035.625" cy="30.3125" r="3.5" fill="rgb(235,235,235)"/></g><defs><filter id="KFgjbR1A7z7HaTUb47UeAVXqrrltbvWM" x="-200%" y="-200%" width="400%" height="400%" filterUnits="objectBoundingBox" color-interpolation-filters="sRGB"><feGaussianBlur xmlns="http://www.w3.org/2000/svg" stdDeviation="1.7174436251356113"/></filter></defs><g filter="url(#KFgjbR1A7z7HaTUb47UeAVXqrrltbvWM)"><circle vector-effect="non-scaling-stroke" cx="665.0000000000001" cy="107.84090909090926" r="3.5" fill="rgb(235,235,235)"/></g><defs><filter id="SqLCIbS0uSHoeAeanT6u1LCW12jbYVZy" x="-200%" y="-200%" width="400%" height="400%" filterUnits="objectBoundingBox" color-interpolation-filters="sRGB"><feGaussianBlur xmlns="http://www.w3.org/2000/svg" stdDeviation="1.2880827188517086"/></filter></defs><g filter="url(#SqLCIbS0uSHoeAeanT6u1LCW12jbYVZy)"><circle vector-effect="non-scaling-stroke" cx="43.939393939393995" cy="739.8484848484845" r="2.5" fill="rgb(235,235,235)"/></g><defs><filter id="iqJlieiBW3jLN1Y64jLK6dFGXxae4hwL" x="-200%" y="-200%" width="400%" height="400%" filterUnits="objectBoundingBox" color-interpolation-filters="sRGB"><feGaussianBlur xmlns="http://www.w3.org/2000/svg" stdDeviation="1.2880827188517086"/></filter></defs><g filter="url(#iqJlieiBW3jLN1Y64jLK6dFGXxae4hwL)"><circle vector-effect="non-scaling-stroke" cx="513.939393939394" cy="639.8484848484848" r="2.5" fill="rgb(235,235,235)"/></g><defs><filter id="2AcmL4TKe05eyaActJZWAfWvrslI0L4d" x="-200%" y="-200%" width="400%" height="400%" filterUnits="objectBoundingBox" color-interpolation-filters="sRGB"><feGaussianBlur xmlns="http://www.w3.org/2000/svg" stdDeviation="1.2880827188517086"/></filter></defs><g filter="url(#2AcmL4TKe05eyaActJZWAfWvrslI0L4d)"><circle vector-effect="non-scaling-stroke" cx="1063.939393939394" cy="609.8484848484848" r="2.5" fill="rgb(235,235,235)"/></g><defs><filter id="RWWcgdDY4UPPjszSVso7nNGYtwKrZ4eW" x="-200%" y="-200%" width="400%" height="400%" filterUnits="objectBoundingBox" color-interpolation-filters="sRGB"><feGaussianBlur xmlns="http://www.w3.org/2000/svg" stdDeviation="1.2880827188517086"/></filter></defs><g filter="url(#RWWcgdDY4UPPjszSVso7nNGYtwKrZ4eW)"><circle vector-effect="non-scaling-stroke" cx="175.625" cy="410.3125" r="2.5" fill="rgb(235,235,235)"/></g><defs><filter id="EStvsIU5o9XRlOL8GgcfVZrIko6MgMXD" x="-200%" y="-200%" width="400%" height="400%" filterUnits="objectBoundingBox" color-interpolation-filters="sRGB"><feGaussianBlur xmlns="http://www.w3.org/2000/svg" stdDeviation="1.2880827188517086"/></filter></defs><g filter="url(#EStvsIU5o9XRlOL8GgcfVZrIko6MgMXD)"><circle vector-effect="non-scaling-stroke" cx="385.625" cy="500.3125" r="2.5" fill="rgb(235,235,235)"/></g><defs><filter id="yYuMoa6ipliRRSFZN9UOsQnVcAuClQWE" x="-200%" y="-200%" width="400%" height="400%" filterUnits="objectBoundingBox" color-interpolation-filters="sRGB"><feGaussianBlur xmlns="http://www.w3.org/2000/svg" stdDeviation="1.2880827188517086"/></filter></defs><g filter="url(#yYuMoa6ipliRRSFZN9UOsQnVcAuClQWE)"><circle vector-effect="non-scaling-stroke" cx="465.625" cy="490.3125" r="2.5" fill="rgb(235,235,235)"/></g><defs><filter id="1MAxkRZUgq4pQyN5eF6RcD9CL9GAaYRt" x="-200%" y="-200%" width="400%" height="400%" filterUnits="objectBoundingBox" color-interpolation-filters="sRGB"><feGaussianBlur xmlns="http://www.w3.org/2000/svg" stdDeviation="1.2880827188517086"/></filter></defs><g filter="url(#1MAxkRZUgq4pQyN5eF6RcD9CL9GAaYRt)"><circle vector-effect="non-scaling-stroke" cx="585.625" cy="560.3125" r="2.5" fill="rgb(235,235,235)"/></g><defs><filter id="MKLEz7L9bFS84lglV8NbiyO7zxM2CPsY" x="-200%" y="-200%" width="400%" height="400%" filterUnits="objectBoundingBox" color-interpolation-filters="sRGB"><feGaussianBlur xmlns="http://www.w3.org/2000/svg" stdDeviation="1.2880827188517086"/></filter></defs><g filter="url(#MKLEz7L9bFS84lglV8NbiyO7zxM2CPsY)"><circle vector-effect="non-scaling-stroke" cx="935.625" cy="220.3125" r="2.5" fill="rgb(235,235,235)"/></g><defs><filter id="OVeaMbPEh6okpgBNdP5PEQyATZLcCrMw" x="-200%" y="-200%" width="400%" height="400%" filterUnits="objectBoundingBox" color-interpolation-filters="sRGB"><feGaussianBlur xmlns="http://www.w3.org/2000/svg" stdDeviation="1.2880827188517086"/></filter></defs><g filter="url(#OVeaMbPEh6okpgBNdP5PEQyATZLcCrMw)"><circle vector-effect="non-scaling-stroke" cx="745" cy="47.84090909090912" r="2.5" fill="rgb(235,235,235)"/></g><defs><filter id="8WPvNlZPw6Lmfh5D09yH9nqtXIsx5KQw" x="-200%" y="-200%" width="400%" height="400%" filterUnits="objectBoundingBox" color-interpolation-filters="sRGB"><feGaussianBlur xmlns="http://www.w3.org/2000/svg" stdDeviation="1.2880827188517086"/></filter></defs><g filter="url(#8WPvNlZPw6Lmfh5D09yH9nqtXIsx5KQw)"><circle vector-effect="non-scaling-stroke" cx="705" cy="167.84090909090912" r="2.5" fill="rgb(235,235,235)"/></g><defs><filter id="7znPtlyJ4Bnu4Yf5d55cYt537QZdU2O2" x="-200%" y="-200%" width="400%" height="400%" filterUnits="objectBoundingBox" color-interpolation-filters="sRGB"><feGaussianBlur xmlns="http://www.w3.org/2000/svg" stdDeviation="1.2880827188517086"/></filter></defs><g filter="url(#7znPtlyJ4Bnu4Yf5d55cYt537QZdU2O2)"><circle vector-effect="non-scaling-stroke" cx="515" cy="67.8409090909091" r="2.5" fill="rgb(235,235,235)"/></g><defs><filter id="JejvyLUAbo0wfCw7odaEvOkhs5BNs0bS" x="-200%" y="-200%" width="400%" height="400%" filterUnits="objectBoundingBox" color-interpolation-filters="sRGB"><feGaussianBlur xmlns="http://www.w3.org/2000/svg" stdDeviation="1.2880827188517086"/></filter></defs><g filter="url(#JejvyLUAbo0wfCw7odaEvOkhs5BNs0bS)"><circle vector-effect="non-scaling-stroke" cx="405" cy="57.84090909090908" r="2.5" fill="rgb(235,235,235)"/></g><defs><filter id="Ox7B0d1YrI5pq6RQ5id5ywtymUTNnLL4" x="-200%" y="-200%" width="400%" height="400%" filterUnits="objectBoundingBox" color-interpolation-filters="sRGB"><feGaussianBlur xmlns="http://www.w3.org/2000/svg" stdDeviation="1.2880827188517086"/></filter></defs><g filter="url(#Ox7B0d1YrI5pq6RQ5id5ywtymUTNnLL4)"><circle vector-effect="non-scaling-stroke" cx="235" cy="267.8409090909091" r="2.5" fill="rgb(235,235,235)"/></g><defs><filter id="IWf7m9wQQWipLPAg9FMIC0pa47KT3HD5" x="-200%" y="-200%" width="400%" height="400%" filterUnits="objectBoundingBox" color-interpolation-filters="sRGB"><feGaussianBlur xmlns="http://www.w3.org/2000/svg" stdDeviation="1.2880827188517086"/></filter></defs><g filter="url(#IWf7m9wQQWipLPAg9FMIC0pa47KT3HD5)"><circle vector-effect="non-scaling-stroke" cx="95" cy="117.8409090909091" r="2.5" fill="rgb(235,235,235)"/></g><defs><filter id="tzJVen0t7etetrgMlAW7hh1YM3eqWVok" x="-200%" y="-200%" width="400%" height="400%" filterUnits="objectBoundingBox" color-interpolation-filters="sRGB"><feGaussianBlur xmlns="http://www.w3.org/2000/svg" stdDeviation="1.2880827188517086"/></filter></defs><g filter="url(#tzJVen0t7etetrgMlAW7hh1YM3eqWVok)"><circle vector-effect="non-scaling-stroke" cx="5" cy="67.8409090909091" r="2.5" fill="rgb(235,235,235)"/></g><defs><filter id="7VuPa50BVElVo1OsYPRlnTgkUiz4GC5V" x="-200%" y="-200%" width="400%" height="400%" filterUnits="objectBoundingBox" color-interpolation-filters="sRGB"><feGaussianBlur xmlns="http://www.w3.org/2000/svg" stdDeviation="1.073402265709757"/></filter></defs><g filter="url(#7VuPa50BVElVo1OsYPRlnTgkUiz4GC5V)"><circle vector-effect="non-scaling-stroke" cx="97" cy="209.625" r="2" fill="rgb(235,235,235)"/></g><defs><filter id="HiwbtZi7dOWeWyNJKfwu0pGmSUfxJUmo" x="-200%" y="-200%" width="400%" height="400%" filterUnits="objectBoundingBox" color-interpolation-filters="sRGB"><feGaussianBlur xmlns="http://www.w3.org/2000/svg" stdDeviation="1.073402265709757"/></filter></defs><g filter="url(#HiwbtZi7dOWeWyNJKfwu0pGmSUfxJUmo)"><circle vector-effect="non-scaling-stroke" cx="55" cy="240" r="2" fill="rgb(235,235,235)"/></g><defs><filter id="6NQTYhF3jwiHuKrI0SoIacLcVX5pH1iu" x="-200%" y="-200%" width="400%" height="400%" filterUnits="objectBoundingBox" color-interpolation-filters="sRGB"><feGaussianBlur xmlns="http://www.w3.org/2000/svg" stdDeviation="1.073402265709757"/></filter></defs><g filter="url(#6NQTYhF3jwiHuKrI0SoIacLcVX5pH1iu)"><circle vector-effect="non-scaling-stroke" cx="25.5" cy="209.625" r="2" fill="rgb(235,235,235)"/></g><defs><filter id="5iAUA1k4FFbOhgFmPrqB2A9XFnhR8p9K" x="-200%" y="-200%" width="400%" height="400%" filterUnits="objectBoundingBox" color-interpolation-filters="sRGB"><feGaussianBlur xmlns="http://www.w3.org/2000/svg" stdDeviation="1.073402265709757"/></filter></defs><g filter="url(#5iAUA1k4FFbOhgFmPrqB2A9XFnhR8p9K)"><circle vector-effect="non-scaling-stroke" cx="25.5" cy="121.625" r="2" fill="rgb(235,235,235)"/></g><defs><filter id="yTWAth7HHMA6RcH81Uzxso0JzvqjukSP" x="-200%" y="-200%" width="400%" height="400%" filterUnits="objectBoundingBox" color-interpolation-filters="sRGB"><feGaussianBlur xmlns="http://www.w3.org/2000/svg" stdDeviation="1.073402265709757"/></filter></defs><g filter="url(#yTWAth7HHMA6RcH81Uzxso0JzvqjukSP)"><circle vector-effect="non-scaling-stroke" cx="853.939393939394" cy="659.8484848484849" r="2" fill="rgb(235,235,235)"/></g><defs><filter id="7OTL2xLbvKZeA6XySpd2GlG4wnsTCfWF" x="-200%" y="-200%" width="400%" height="400%" filterUnits="objectBoundingBox" color-interpolation-filters="sRGB"><feGaussianBlur xmlns="http://www.w3.org/2000/svg" stdDeviation="1.073402265709757"/></filter></defs><g filter="url(#7OTL2xLbvKZeA6XySpd2GlG4wnsTCfWF)"><circle vector-effect="non-scaling-stroke" cx="853.939393939394" cy="719.8484848484849" r="2" fill="rgb(235,235,235)"/></g><defs><filter id="cq19lbCBowGLsOTUUfD17UtbWl5djhox" x="-200%" y="-200%" width="400%" height="400%" filterUnits="objectBoundingBox" color-interpolation-filters="sRGB"><feGaussianBlur xmlns="http://www.w3.org/2000/svg" stdDeviation="1.073402265709757"/></filter></defs><g filter="url(#cq19lbCBowGLsOTUUfD17UtbWl5djhox)"><circle vector-effect="non-scaling-stroke" cx="983.939393939394" cy="789.8484848484849" r="2" fill="rgb(235,235,235)"/></g><defs><filter id="07QwP5g8kexoIpEhKQhzYR4PlYs62Act" x="-200%" y="-200%" width="400%" height="400%" filterUnits="objectBoundingBox" color-interpolation-filters="sRGB"><feGaussianBlur xmlns="http://www.w3.org/2000/svg" stdDeviation="1.073402265709757"/></filter></defs><g filter="url(#07QwP5g8kexoIpEhKQhzYR4PlYs62Act)"><circle vector-effect="non-scaling-stroke" cx="956" cy="789" r="2" fill="rgb(235,235,235)"/></g><defs><filter id="pCkGY3keaCdkHgdBqZsXCqFKiHc1Q75h" x="-200%" y="-200%" width="400%" height="400%" filterUnits="objectBoundingBox" color-interpolation-filters="sRGB"><feGaussianBlur xmlns="http://www.w3.org/2000/svg" stdDeviation="1.073402265709757"/></filter></defs><g filter="url(#pCkGY3keaCdkHgdBqZsXCqFKiHc1Q75h)"><circle vector-effect="non-scaling-stroke" cx="316" cy="809" r="2" fill="rgb(235,235,235)"/></g><defs><filter id="JMK4lGYgxJeLIXDtnjW0tkfisZaw1GSZ" x="-200%" y="-200%" width="400%" height="400%" filterUnits="objectBoundingBox" color-interpolation-filters="sRGB"><feGaussianBlur xmlns="http://www.w3.org/2000/svg" stdDeviation="1.073402265709757"/></filter></defs><g filter="url(#JMK4lGYgxJeLIXDtnjW0tkfisZaw1GSZ)"><circle vector-effect="non-scaling-stroke" cx="216" cy="839" r="2" fill="rgb(235,235,235)"/></g><defs><filter id="vRqT9uGvfgRIpzkix8cruS7UTmXgL4gN" x="-200%" y="-200%" width="400%" height="400%" filterUnits="objectBoundingBox" color-interpolation-filters="sRGB"><feGaussianBlur xmlns="http://www.w3.org/2000/svg" stdDeviation="1.073402265709757"/></filter></defs><g filter="url(#vRqT9uGvfgRIpzkix8cruS7UTmXgL4gN)"><circle vector-effect="non-scaling-stroke" cx="683.939393939394" cy="649.8484848484849" r="2" fill="rgb(235,235,235)"/></g><defs><filter id="PGfgnsZlClUF8ZQGsmMrSIAWeKeJEP55" x="-200%" y="-200%" width="400%" height="400%" filterUnits="objectBoundingBox" color-interpolation-filters="sRGB"><feGaussianBlur xmlns="http://www.w3.org/2000/svg" stdDeviation="1.073402265709757"/></filter></defs><g filter="url(#PGfgnsZlClUF8ZQGsmMrSIAWeKeJEP55)"><circle vector-effect="non-scaling-stroke" cx="513.939393939394" cy="749.8484848484849" r="2" fill="rgb(235,235,235)"/></g><defs><filter id="PQDH1VrGuJzjzt7bDmA4czRQO7D3XiI2" x="-200%" y="-200%" width="400%" height="400%" filterUnits="objectBoundingBox" color-interpolation-filters="sRGB"><feGaussianBlur xmlns="http://www.w3.org/2000/svg" stdDeviation="1.073402265709757"/></filter></defs><g filter="url(#PQDH1VrGuJzjzt7bDmA4czRQO7D3XiI2)"><circle vector-effect="non-scaling-stroke" cx="183.939393939394" cy="649.8484848484849" r="2" fill="rgb(235,235,235)"/></g><defs><filter id="29tnhd8ctZOfgA1AG5Vo2GGoJ25HeYIP" x="-200%" y="-200%" width="400%" height="400%" filterUnits="objectBoundingBox" color-interpolation-filters="sRGB"><feGaussianBlur xmlns="http://www.w3.org/2000/svg" stdDeviation="1.073402265709757"/></filter></defs><g filter="url(#29tnhd8ctZOfgA1AG5Vo2GGoJ25HeYIP)"><circle vector-effect="non-scaling-stroke" cx="53.939393939393995" cy="639.8484848484849" r="2" fill="rgb(235,235,235)"/></g><defs><filter id="auUVrpq4vE0zLAU4EDYh1zA2oZXgqKRv" x="-200%" y="-200%" width="400%" height="400%" filterUnits="objectBoundingBox" color-interpolation-filters="sRGB"><feGaussianBlur xmlns="http://www.w3.org/2000/svg" stdDeviation="1.073402265709757"/></filter></defs><g filter="url(#auUVrpq4vE0zLAU4EDYh1zA2oZXgqKRv)"><circle vector-effect="non-scaling-stroke" cx="1083.939393939394" cy="609.8484848484849" r="2" fill="rgb(235,235,235)"/></g><defs><filter id="KgrC5oi9OgVmfS18pHfliFVuvOfDu1yh" x="-200%" y="-200%" width="400%" height="400%" filterUnits="objectBoundingBox" color-interpolation-filters="sRGB"><feGaussianBlur xmlns="http://www.w3.org/2000/svg" stdDeviation="1.073402265709757"/></filter></defs><g filter="url(#KgrC5oi9OgVmfS18pHfliFVuvOfDu1yh)"><circle vector-effect="non-scaling-stroke" cx="943.939393939394" cy="549.8484848484849" r="2" fill="rgb(235,235,235)"/></g><defs><filter id="a8qDohBWEeUkeu190l7WOh2VnS0sBwHT" x="-200%" y="-200%" width="400%" height="400%" filterUnits="objectBoundingBox" color-interpolation-filters="sRGB"><feGaussianBlur xmlns="http://www.w3.org/2000/svg" stdDeviation="1.073402265709757"/></filter></defs><g filter="url(#a8qDohBWEeUkeu190l7WOh2VnS0sBwHT)"><circle vector-effect="non-scaling-stroke" cx="913.939393939394" cy="549.8484848484849" r="2" fill="rgb(235,235,235)"/></g><defs><filter id="Wsup6fXa7nCLk5i2RsEKA4hkMruO53OA" x="-200%" y="-200%" width="400%" height="400%" filterUnits="objectBoundingBox" color-interpolation-filters="sRGB"><feGaussianBlur xmlns="http://www.w3.org/2000/svg" stdDeviation="1.073402265709757"/></filter></defs><g filter="url(#Wsup6fXa7nCLk5i2RsEKA4hkMruO53OA)"><circle vector-effect="non-scaling-stroke" cx="35.625" cy="510.3125" r="2" fill="rgb(235,235,235)"/></g><defs><filter id="XQ9TNavKMV4wMOf9Qr90Uf6j0251mlnR" x="-200%" y="-200%" width="400%" height="400%" filterUnits="objectBoundingBox" color-interpolation-filters="sRGB"><feGaussianBlur xmlns="http://www.w3.org/2000/svg" stdDeviation="1.073402265709757"/></filter></defs><g filter="url(#XQ9TNavKMV4wMOf9Qr90Uf6j0251mlnR)"><circle vector-effect="non-scaling-stroke" cx="145.625" cy="490.3125" r="2" fill="rgb(235,235,235)"/></g><defs><filter id="xVstb5nWYJDI1NRehqhWKnaAcWWsm6au" x="-200%" y="-200%" width="400%" height="400%" filterUnits="objectBoundingBox" color-interpolation-filters="sRGB"><feGaussianBlur xmlns="http://www.w3.org/2000/svg" stdDeviation="1.073402265709757"/></filter></defs><g filter="url(#xVstb5nWYJDI1NRehqhWKnaAcWWsm6au)"><circle vector-effect="non-scaling-stroke" cx="805.625" cy="530.3125" r="2" fill="rgb(235,235,235)"/></g><defs><filter id="dcoOkybYn8l1GaGL0YXoX2zt9ZsmmA9p" x="-200%" y="-200%" width="400%" height="400%" filterUnits="objectBoundingBox" color-interpolation-filters="sRGB"><feGaussianBlur xmlns="http://www.w3.org/2000/svg" stdDeviation="1.073402265709757"/></filter></defs><g filter="url(#dcoOkybYn8l1GaGL0YXoX2zt9ZsmmA9p)"><circle vector-effect="non-scaling-stroke" cx="1025.625" cy="450.3125" r="2" fill="rgb(235,235,235)"/></g><defs><filter id="CCxg3ASmRXDrjiU9Vas7dWau8G1rsDsP" x="-200%" y="-200%" width="400%" height="400%" filterUnits="objectBoundingBox" color-interpolation-filters="sRGB"><feGaussianBlur xmlns="http://www.w3.org/2000/svg" stdDeviation="1.073402265709757"/></filter></defs><g filter="url(#CCxg3ASmRXDrjiU9Vas7dWau8G1rsDsP)"><circle vector-effect="non-scaling-stroke" cx="385.625" cy="260.3125" r="2" fill="rgb(235,235,235)"/></g><defs><filter id="y5zcj9EcQVtmTPxYEvdJQvbFTx81mSZo" x="-200%" y="-200%" width="400%" height="400%" filterUnits="objectBoundingBox" color-interpolation-filters="sRGB"><feGaussianBlur xmlns="http://www.w3.org/2000/svg" stdDeviation="1.073402265709757"/></filter></defs><g filter="url(#y5zcj9EcQVtmTPxYEvdJQvbFTx81mSZo)"><circle vector-effect="non-scaling-stroke" cx="465.625" cy="330.3125" r="2" fill="rgb(235,235,235)"/></g><defs><filter id="d4JvipMDsqcpL4UGPN6UUMvH0xiXsTuI" x="-200%" y="-200%" width="400%" height="400%" filterUnits="objectBoundingBox" color-interpolation-filters="sRGB"><feGaussianBlur xmlns="http://www.w3.org/2000/svg" stdDeviation="1.073402265709757"/></filter></defs><g filter="url(#d4JvipMDsqcpL4UGPN6UUMvH0xiXsTuI)"><circle vector-effect="non-scaling-stroke" cx="545.625" cy="320.3125" r="2" fill="rgb(235,235,235)"/></g><defs><filter id="IzvpVrFWYte4NNPg82y5wpBnouuplgFg" x="-200%" y="-200%" width="400%" height="400%" filterUnits="objectBoundingBox" color-interpolation-filters="sRGB"><feGaussianBlur xmlns="http://www.w3.org/2000/svg" stdDeviation="1.073402265709757"/></filter></defs><g filter="url(#IzvpVrFWYte4NNPg82y5wpBnouuplgFg)"><circle vector-effect="non-scaling-stroke" cx="965.625" cy="280.3125" r="2" fill="rgb(235,235,235)"/></g><defs><filter id="Du34TANyvkg7i6AxZyM5Ucif4oSDtDWQ" x="-200%" y="-200%" width="400%" height="400%" filterUnits="objectBoundingBox" color-interpolation-filters="sRGB"><feGaussianBlur xmlns="http://www.w3.org/2000/svg" stdDeviation="1.073402265709757"/></filter></defs><g filter="url(#Du34TANyvkg7i6AxZyM5Ucif4oSDtDWQ)"><circle vector-effect="non-scaling-stroke" cx="915.625" cy="70.3125" r="2" fill="rgb(235,235,235)"/></g><defs><filter id="wrHmtq3Sj61uVOLR8K9XlxXkiAoUVI58" x="-200%" y="-200%" width="400%" height="400%" filterUnits="objectBoundingBox" color-interpolation-filters="sRGB"><feGaussianBlur xmlns="http://www.w3.org/2000/svg" stdDeviation="1.073402265709757"/></filter></defs><g filter="url(#wrHmtq3Sj61uVOLR8K9XlxXkiAoUVI58)"><circle vector-effect="non-scaling-stroke" cx="75" cy="337.8409090909091" r="2" fill="rgb(235,235,235)"/></g><defs><filter id="X9x2tnCOSJmo0uKHRwArWk0fsRkX1OdA" x="-200%" y="-200%" width="400%" height="400%" filterUnits="objectBoundingBox" color-interpolation-filters="sRGB"><feGaussianBlur xmlns="http://www.w3.org/2000/svg" stdDeviation="1.073402265709757"/></filter></defs><g filter="url(#X9x2tnCOSJmo0uKHRwArWk0fsRkX1OdA)"><circle vector-effect="non-scaling-stroke" cx="325" cy="17.840909090909122" r="2" fill="rgb(235,235,235)"/></g><defs><filter id="9Rm8t9PjDfuyDyjOtAVt5ohv0IBnz6rM" x="-200%" y="-200%" width="400%" height="400%" filterUnits="objectBoundingBox" color-interpolation-filters="sRGB"><feGaussianBlur xmlns="http://www.w3.org/2000/svg" stdDeviation="1.073402265709757"/></filter></defs><g filter="url(#9Rm8t9PjDfuyDyjOtAVt5ohv0IBnz6rM)"><circle vector-effect="non-scaling-stroke" cx="245" cy="127.84090909090912" r="2" fill="rgb(235,235,235)"/></g><defs><filter id="gd9oubyv6GjD0P4ni6SslXRSG5HEQgGp" x="-200%" y="-200%" width="400%" height="400%" filterUnits="objectBoundingBox" color-interpolation-filters="sRGB"><feGaussianBlur xmlns="http://www.w3.org/2000/svg" stdDeviation="1.073402265709757"/></filter></defs><g filter="url(#gd9oubyv6GjD0P4ni6SslXRSG5HEQgGp)"><circle vector-effect="non-scaling-stroke" cx="55" cy="77.84090909090912" r="2" fill="rgb(235,235,235)"/></g><defs><filter id="kBMiANNXRV5vEcPL25yrKmkMoyRC0PSt" x="-200%" y="-200%" width="400%" height="400%" filterUnits="objectBoundingBox" color-interpolation-filters="sRGB"><feGaussianBlur xmlns="http://www.w3.org/2000/svg" stdDeviation="1.073402265709757"/></filter></defs><g filter="url(#kBMiANNXRV5vEcPL25yrKmkMoyRC0PSt)"><circle vector-effect="non-scaling-stroke" cx="85" cy="17.840909090909122" r="2" fill="rgb(235,235,235)"/></g></g></g></g></svg>